# xmcd
#
# Track frame offsets:
#	150
#	14607
#	24099
#	35615
#	48169
#	59730
#	71421
#	86048
#	97168
#	111997
#	123639
#	136667
#
# Disc length: 1962 seconds
#
# Revision: 0
# Processed by: cddbd v1.5.1PL0 Copyright (c) Steve Scherf et al.
# Submitted via: dBpowerAMP V4.0
#
DISCID=a607a80c
DTITLE=Frankie Laine - Forever Gold
DYEAR=1955
DGENRE=Country
TTITLE0=Don't Fence Me n
TTITLE1=Rawhide
TTITLE2=Love Is A Golden Ring
TTITLE3=High Noon
TTITLE4=Answer Me 
TTITLE5=Strange Lady In Town 
TTITLE6=There Must Be A Reason
TTITLE7=Hummingbird
TTITLE8=Jezebel
TTITLE9=Mule Train
TTITLE10=Moonlight Gambler
TTITLE11=Believe
EXTD=Frankie Laine
EXTT0=
EXTT1=
EXTT2=
EXTT3=
EXTT4=
EXTT5=
EXTT6=
EXTT7=
EXTT8=
EXTT9=
EXTT10=
EXTT11=
PLAYORDER=
